M48
; DRILL file {KiCad 7.0.10} date Thu Feb 15 01:50:33 2024
; FORMAT={-:-/ absolute / inch / decimal}
; #@! TF.CreationDate,2024-02-15T01:50:33-05:00
; #@! TF.GenerationSoftware,Kicad,Pcbnew,7.0.10
; #@! TF.FileFunction,Plated,1,2,PTH
FMAT,2
INCH
; #@! TA.AperFunction,Plated,PTH,ViaDrill
T1C0.0157
; #@! TA.AperFunction,Plated,PTH,ComponentDrill
T2C0.0300
; #@! TA.AperFunction,Plated,PTH,ViaDrill
T3C0.0315
; #@! TA.AperFunction,Plated,PTH,ComponentDrill
T4C0.0315
; #@! TA.AperFunction,Plated,PTH,ComponentDrill
T5C0.0394
; #@! TA.AperFunction,Plated,PTH,ComponentDrill
T6C0.0433
; #@! TA.AperFunction,Plated,PTH,ComponentDrill
T7C0.0984
; #@! TA.AperFunction,Plated,PTH,ComponentDrill
T8C0.1181
%
G90
G05
T1
X4.5276Y-5.748
X4.6063Y-3.3858
X4.6063Y-3.622
X4.685Y-3.3071
X4.685Y-5.3425
X4.6926Y-5.9524
X4.7152Y-6.5739
X4.7244Y-3.5827
X4.7638Y-5.7874
X4.7638Y-6.6142
X4.8031Y-5.5512
X4.842Y-6.6147
X4.8425Y-5.5906
X4.8425Y-6.5748
X4.8819Y-5.6299
X4.8819Y-6.5354
X4.9606Y-6.3386
X5.0Y-5.5886
X5.0Y-6.1811
X5.0Y-6.6016
X5.0394Y-5.8268
X5.0787Y-6.2598
X5.1575Y-6.0236
X5.1722Y-6.4961
X5.2751Y-5.878
X5.2756Y-5.9695
X5.3937Y-3.7008
X5.4331Y-3.4646
X5.4331Y-5.6299
X5.446Y-5.798
X5.4724Y-3.6634
X5.4724Y-6.4173
X5.5512Y-3.7402
X5.5512Y-5.4093
X5.5906Y-2.4409
X5.6299Y-5.2756
X5.6693Y-2.3622
X5.6693Y-3.6634
X5.6693Y-5.6299
X5.6693Y-6.063
X5.748Y-3.4252
X5.748Y-3.7008
X5.9055Y-3.2283
X5.9449Y-3.7008
X5.9843Y-2.0984
X5.9843Y-6.7736
X6.1806Y-6.0231
X6.1811Y-5.7314
X6.1811Y-5.8268
X6.2205Y-5.5906
X6.2205Y-6.0236
X6.2594Y-5.4724
X6.2598Y-6.7323
X6.3386Y-6.8307
X6.5354Y-6.7717
X6.5748Y-2.4803
X6.6142Y-3.189
X6.6181Y-3.3921
X6.7285Y-3.3071
X6.8898Y-3.622
X6.9291Y-3.189
T2
X5.8661Y-5.2378
X5.8661Y-5.3378
X5.8661Y-5.4378
X5.8661Y-5.5378
X5.8661Y-5.6378
X5.8661Y-5.7378
X5.8661Y-5.8378
X5.8661Y-5.9449
X6.3386Y-5.2457
X6.3386Y-5.3457
X6.3386Y-5.4457
X6.3386Y-5.5457
X6.3386Y-5.6457
X6.3386Y-5.7457
X6.3386Y-5.8457
X6.3386Y-5.9457
T3
X4.4488Y-6.0236
X4.4882Y-5.3937
X4.8031Y-3.4252
X4.8425Y-3.8583
X4.8578Y-2.7165
X4.8819Y-3.1433
X5.1181Y-5.8268
X5.2362Y-3.5252
X5.2362Y-5.1181
X5.5856Y-5.1575
X5.6201Y-5.7087
X5.7087Y-5.7087
X5.8858Y-2.185
X5.9449Y-6.1024
X6.0669Y-5.1787
X6.0669Y-5.6348
X6.1024Y-5.0787
X6.1024Y-5.9104
X6.2992Y-2.0472
X6.378Y-3.8189
X6.6535Y-5.6693
X6.6535Y-5.9843
X6.7717Y-3.4433
X6.8504Y-3.5039
X6.9774Y-6.063
T4
X4.9724Y-5.9449
X5.0Y-3.5039
X5.0Y-3.5827
X5.4724Y-5.9449
X5.6299Y-5.498
X5.6299Y-5.998
X5.9705Y-6.2205
X5.9705Y-6.378
X5.9705Y-6.5354
X5.9705Y-6.6929
X6.4173Y-3.5039
X6.4173Y-3.5827
X6.4705Y-6.2205
X6.4705Y-6.378
X6.4705Y-6.5354
X6.4705Y-6.6929
X6.9331Y-6.2067
X6.9331Y-6.3067
X6.9331Y-6.4067
X6.9331Y-6.5067
X6.9331Y-6.6067
X6.9331Y-6.7067
X7.2331Y-6.2067
X7.2331Y-6.3067
X7.2331Y-6.4067
X7.2331Y-6.5067
X7.2331Y-6.6067
X7.2331Y-6.7067
T5
X4.2126Y-3.0433
X4.2126Y-3.1433
X4.2126Y-3.2433
X4.2126Y-3.3433
X4.2126Y-3.4433
X4.2126Y-3.5433
X4.2126Y-3.6433
X4.5042Y-2.6136
X4.575Y-2.5429
X4.6457Y-2.4721
X4.7164Y-2.4014
X4.7871Y-2.3307
X4.8578Y-2.26
X4.8756Y-5.7087
X4.9285Y-2.1893
X4.9362Y-5.4705
X4.9756Y-5.7087
X5.0362Y-5.4705
X5.0756Y-5.7087
X5.1362Y-5.4705
X5.1756Y-5.7087
X5.2362Y-5.4705
X5.2756Y-5.7087
X5.3362Y-5.4705
X5.3756Y-5.7087
X5.4118Y-1.9685
X5.4362Y-5.4705
X5.4587Y-2.6028
X5.4587Y-3.3028
X5.5118Y-1.9685
X5.5587Y-2.6028
X5.5587Y-3.3028
X5.5661Y-3.5433
X5.6118Y-1.9685
X5.6587Y-2.6028
X5.6587Y-3.3028
X5.6661Y-3.5433
X5.7118Y-1.9685
X5.7587Y-2.6028
X5.7587Y-3.3028
X5.7661Y-3.5433
X5.8118Y-1.9685
X5.8587Y-2.6028
X5.8587Y-3.3028
X5.8661Y-3.5433
X5.9118Y-1.9685
X5.9587Y-2.6028
X5.9587Y-3.3028
X6.0118Y-1.9685
X6.4968Y-2.1896
X6.5354Y-5.3087
X6.5354Y-5.4087
X6.5354Y-5.5087
X6.5354Y-5.6087
X6.5354Y-5.7087
X6.5354Y-5.8087
X6.5676Y-2.2603
X6.6383Y-2.331
X6.709Y-2.4017
X6.7797Y-2.4724
X6.8504Y-2.5431
X6.9211Y-2.6138
X7.2047Y-3.0433
X7.2047Y-3.1433
X7.2047Y-3.2433
X7.2047Y-3.3433
X7.2047Y-3.4433
X7.2047Y-3.5433
X7.2047Y-3.6433
T6
X4.2437Y-6.1173
X4.2437Y-6.7173
X4.3437Y-6.1173
X4.3437Y-6.2173
X4.3437Y-6.7173
X4.4437Y-6.1173
X4.4437Y-6.7173
X4.5437Y-6.1173
X4.5437Y-6.7173
X4.6437Y-6.1173
X4.6437Y-6.7173
X4.7437Y-6.1173
X4.7437Y-6.7173
X4.8437Y-6.1173
X4.8437Y-6.7173
X4.9437Y-6.1173
X4.9437Y-6.7173
X5.0437Y-6.1173
X5.0437Y-6.7173
X5.1437Y-6.1173
X5.1437Y-6.7173
X5.2437Y-6.1173
X5.2437Y-6.2173
X5.2437Y-6.3173
X5.2437Y-6.4173
X5.2437Y-6.5173
X5.2437Y-6.6173
X5.2437Y-6.7173
X5.3437Y-6.1173
X5.3437Y-6.2173
X5.3437Y-6.3173
X5.3437Y-6.4173
X5.3437Y-6.5173
X5.3437Y-6.6173
X5.3437Y-6.7173
X5.4437Y-6.1173
X5.4437Y-6.7173
X5.5437Y-6.1173
X5.5437Y-6.2173
X5.5437Y-6.3173
X5.5437Y-6.4173
X5.5437Y-6.5173
X5.5437Y-6.6173
X5.5437Y-6.7173
T7
X5.3087Y-2.6028
X5.3087Y-3.3028
X6.1087Y-2.6028
X6.1087Y-3.3028
T8
X4.6063Y-3.8976
X4.6063Y-5.8661
X6.811Y-3.8976
X6.811Y-5.8661
M30
