%TF.GenerationSoftware,KiCad,Pcbnew,7.0.10*%
%TF.CreationDate,2024-02-15T01:50:33-05:00*%
%TF.ProjectId,A_Micromouse_Team_PCB_Rev1,415f4d69-6372-46f6-9d6f-7573655f5465,rev?*%
%TF.SameCoordinates,Original*%
%TF.FileFunction,Drillmap*%
%TF.FilePolarity,Positive*%
%FSLAX45Y45*%
G04 Gerber Fmt 4.5, Leading zero omitted, Abs format (unit mm)*
G04 Created by KiCad (PCBNEW 7.0.10) date 2024-02-15 01:50:33*
%MOMM*%
%LPD*%
G01*
G04 APERTURE LIST*
%ADD10C,0.100000*%
%ADD11C,0.200000*%
G04 APERTURE END LIST*
D10*
X18600000Y-7500000D02*
G75*
G03*
X10400000Y-7500000I-4100000J-1300000D01*
G01*
X10400000Y-9600000D02*
X10400000Y-7500000D01*
X11200000Y-9600000D02*
X10400000Y-9600000D01*
X11200000Y-15300000D02*
X11200000Y-9600000D01*
X10400000Y-15300000D02*
X11200000Y-15300000D01*
X10400000Y-17400000D02*
X10400000Y-15300000D01*
X18600000Y-17400000D02*
X10400000Y-17400000D01*
X18600000Y-17300000D02*
X18600000Y-17400000D01*
X18600000Y-9600000D02*
X18600000Y-7500000D01*
X17800000Y-9600000D02*
X18600000Y-9600000D01*
X17800000Y-15500000D02*
X17800000Y-9600000D01*
X18600000Y-15500000D02*
X17800000Y-15500000D01*
X18600000Y-17300000D02*
X18600000Y-15500000D01*
D11*
X10655777Y-17716484D02*
X10655777Y-17516484D01*
X10655777Y-17516484D02*
X10703396Y-17516484D01*
X10703396Y-17516484D02*
X10731967Y-17526008D01*
X10731967Y-17526008D02*
X10751015Y-17545055D01*
X10751015Y-17545055D02*
X10760539Y-17564103D01*
X10760539Y-17564103D02*
X10770063Y-17602198D01*
X10770063Y-17602198D02*
X10770063Y-17630770D01*
X10770063Y-17630770D02*
X10760539Y-17668865D01*
X10760539Y-17668865D02*
X10751015Y-17687912D01*
X10751015Y-17687912D02*
X10731967Y-17706960D01*
X10731967Y-17706960D02*
X10703396Y-17716484D01*
X10703396Y-17716484D02*
X10655777Y-17716484D01*
X10855777Y-17716484D02*
X10855777Y-17583150D01*
X10855777Y-17621246D02*
X10865301Y-17602198D01*
X10865301Y-17602198D02*
X10874824Y-17592674D01*
X10874824Y-17592674D02*
X10893872Y-17583150D01*
X10893872Y-17583150D02*
X10912920Y-17583150D01*
X10979586Y-17716484D02*
X10979586Y-17583150D01*
X10979586Y-17516484D02*
X10970063Y-17526008D01*
X10970063Y-17526008D02*
X10979586Y-17535531D01*
X10979586Y-17535531D02*
X10989110Y-17526008D01*
X10989110Y-17526008D02*
X10979586Y-17516484D01*
X10979586Y-17516484D02*
X10979586Y-17535531D01*
X11103396Y-17716484D02*
X11084348Y-17706960D01*
X11084348Y-17706960D02*
X11074824Y-17687912D01*
X11074824Y-17687912D02*
X11074824Y-17516484D01*
X11208158Y-17716484D02*
X11189110Y-17706960D01*
X11189110Y-17706960D02*
X11179586Y-17687912D01*
X11179586Y-17687912D02*
X11179586Y-17516484D01*
X11436729Y-17716484D02*
X11436729Y-17516484D01*
X11436729Y-17516484D02*
X11503396Y-17659341D01*
X11503396Y-17659341D02*
X11570062Y-17516484D01*
X11570062Y-17516484D02*
X11570062Y-17716484D01*
X11751015Y-17716484D02*
X11751015Y-17611722D01*
X11751015Y-17611722D02*
X11741491Y-17592674D01*
X11741491Y-17592674D02*
X11722443Y-17583150D01*
X11722443Y-17583150D02*
X11684348Y-17583150D01*
X11684348Y-17583150D02*
X11665301Y-17592674D01*
X11751015Y-17706960D02*
X11731967Y-17716484D01*
X11731967Y-17716484D02*
X11684348Y-17716484D01*
X11684348Y-17716484D02*
X11665301Y-17706960D01*
X11665301Y-17706960D02*
X11655777Y-17687912D01*
X11655777Y-17687912D02*
X11655777Y-17668865D01*
X11655777Y-17668865D02*
X11665301Y-17649817D01*
X11665301Y-17649817D02*
X11684348Y-17640293D01*
X11684348Y-17640293D02*
X11731967Y-17640293D01*
X11731967Y-17640293D02*
X11751015Y-17630770D01*
X11846253Y-17583150D02*
X11846253Y-17783150D01*
X11846253Y-17592674D02*
X11865301Y-17583150D01*
X11865301Y-17583150D02*
X11903396Y-17583150D01*
X11903396Y-17583150D02*
X11922443Y-17592674D01*
X11922443Y-17592674D02*
X11931967Y-17602198D01*
X11931967Y-17602198D02*
X11941491Y-17621246D01*
X11941491Y-17621246D02*
X11941491Y-17678389D01*
X11941491Y-17678389D02*
X11931967Y-17697436D01*
X11931967Y-17697436D02*
X11922443Y-17706960D01*
X11922443Y-17706960D02*
X11903396Y-17716484D01*
X11903396Y-17716484D02*
X11865301Y-17716484D01*
X11865301Y-17716484D02*
X11846253Y-17706960D01*
X12027205Y-17697436D02*
X12036729Y-17706960D01*
X12036729Y-17706960D02*
X12027205Y-17716484D01*
X12027205Y-17716484D02*
X12017682Y-17706960D01*
X12017682Y-17706960D02*
X12027205Y-17697436D01*
X12027205Y-17697436D02*
X12027205Y-17716484D01*
X12027205Y-17592674D02*
X12036729Y-17602198D01*
X12036729Y-17602198D02*
X12027205Y-17611722D01*
X12027205Y-17611722D02*
X12017682Y-17602198D01*
X12017682Y-17602198D02*
X12027205Y-17592674D01*
X12027205Y-17592674D02*
X12027205Y-17611722D01*
M02*
